<mxfile host="196f1311-2ca1-4bd2-acc3-9b98f820edf2" modified="2020-09-19T15:55:16.715Z" agent="5.0 (Windows NT 6.1; Win64; x64) AppleWebKit/537.36 (KHTML, like Gecko) Code/1.47.3 Chrome/78.0.3904.130 Electron/7.3.2 Safari/537.36" etag="ccdnbR8OPM1KZRAFr8bk" version="13.1.3">
    <diagram id="6hGFLwfOUW9BJ-s0fimq" name="Page-1">
        <mxGraphModel dx="2895" dy="1611" grid="1" gridSize="10" guides="1" tooltips="1" connect="1" arrows="1" fold="1" page="1" pageScale="1" pageWidth="827" pageHeight="1169" math="0" shadow="0">
            <root>
                <mxCell id="0"/>
                <mxCell id="1" parent="0"/>
                <mxCell id="2" value="" style="endArrow=block;endSize=16;endFill=0;html=1;fontFamily=Helvetica;fontSize=14;fontColor=#FFFFFF;" edge="1" parent="1" source="17" target="15">
                    <mxGeometry x="-0.5035" y="12" width="160" relative="1" as="geometry">
                        <mxPoint x="-1033" y="-219" as="sourcePoint"/>
                        <mxPoint x="-1032.5" y="-319" as="targetPoint"/>
                        <mxPoint as="offset"/>
                    </mxGeometry>
                </mxCell>
                <mxCell id="3" value="" style="endArrow=block;endSize=16;endFill=0;html=1;fontFamily=Helvetica;fontSize=14;fontColor=#FFFFFF;exitX=0.128;exitY=0.003;exitDx=0;exitDy=0;exitPerimeter=0;" edge="1" parent="1" source="82" target="78">
                    <mxGeometry x="-0.5035" y="12" width="160" relative="1" as="geometry">
                        <mxPoint x="850" y="390" as="sourcePoint"/>
                        <mxPoint x="850" y="300" as="targetPoint"/>
                        <mxPoint as="offset"/>
                    </mxGeometry>
                </mxCell>
                <mxCell id="4" value="" style="endArrow=block;endSize=16;endFill=0;html=1;fontFamily=Helvetica;fontSize=14;fontColor=#FFFFFF;exitX=0.65;exitY=0.002;exitDx=0;exitDy=0;exitPerimeter=0;entryX=0.432;entryY=1.057;entryDx=0;entryDy=0;entryPerimeter=0;" edge="1" parent="1" source="79" target="78">
                    <mxGeometry x="-0.5035" y="12" width="160" relative="1" as="geometry">
                        <mxPoint x="560.5" y="390" as="sourcePoint"/>
                        <mxPoint x="690" y="300" as="targetPoint"/>
                        <mxPoint as="offset"/>
                    </mxGeometry>
                </mxCell>
                <mxCell id="5" value="" style="endArrow=diamondThin;endFill=0;endSize=24;html=1;exitX=1;exitY=0.5;exitDx=0;exitDy=0;entryX=-0.001;entryY=0.937;entryDx=0;entryDy=0;entryPerimeter=0;" edge="1" parent="1" source="9" target="32">
                    <mxGeometry width="160" relative="1" as="geometry">
                        <mxPoint x="-910" y="-439" as="sourcePoint"/>
                        <mxPoint x="-630" y="-440" as="targetPoint"/>
                    </mxGeometry>
                </mxCell>
                <mxCell id="6" value="" style="endArrow=diamondThin;endFill=0;endSize=24;html=1;entryX=0.5;entryY=1;entryDx=0;entryDy=0;exitX=0.47;exitY=-0.005;exitDx=0;exitDy=0;exitPerimeter=0;" edge="1" parent="1" source="61" target="50">
                    <mxGeometry width="160" relative="1" as="geometry">
                        <mxPoint x="704.41" y="-170" as="sourcePoint"/>
                        <mxPoint x="704.41" y="-240" as="targetPoint"/>
                    </mxGeometry>
                </mxCell>
                <mxCell id="7" value="" style="endArrow=open;endSize=12;dashed=1;html=1;entryX=0.993;entryY=0.213;entryDx=0;entryDy=0;entryPerimeter=0;exitX=0.005;exitY=0.792;exitDx=0;exitDy=0;exitPerimeter=0;" edge="1" parent="1" source="53" target="33">
                    <mxGeometry y="-82" width="160" relative="1" as="geometry">
                        <mxPoint x="480" y="-430" as="sourcePoint"/>
                        <mxPoint x="120" y="-73" as="targetPoint"/>
                        <Array as="points"/>
                        <mxPoint x="20" y="2" as="offset"/>
                    </mxGeometry>
                </mxCell>
                <mxCell id="8" value="" style="endArrow=block;startArrow=block;endFill=1;startFill=1;html=1;exitX=1;exitY=0.25;exitDx=0;exitDy=0;" edge="1" parent="1" source="61" target="87">
                    <mxGeometry width="160" relative="1" as="geometry">
                        <mxPoint x="730" y="-39" as="sourcePoint"/>
                        <mxPoint x="1080" y="190" as="targetPoint"/>
                    </mxGeometry>
                </mxCell>
                <mxCell id="9" value="&lt;&lt;abstract&gt;&gt;&#10;Player" style="swimlane;fontStyle=1;align=center;verticalAlign=middle;childLayout=stackLayout;horizontal=1;startSize=40;horizontalStack=0;resizeParent=1;resizeParentMax=0;resizeLast=0;collapsible=1;marginBottom=0;fillColor=#f9f7ed;strokeColor=#36393d;fontColor=#000000;spacing=7;" vertex="1" parent="1">
                    <mxGeometry x="-1310" y="-529" width="380" height="178" as="geometry"/>
                </mxCell>
                <mxCell id="10" value="&lt;&lt;property&gt;&gt; + IdPlayer: PlayerMarker" style="text;strokeColor=#36393d;fillColor=#ffcc99;align=left;verticalAlign=top;spacingLeft=4;spacingRight=4;overflow=hidden;rotatable=0;points=[[0,0.5],[1,0.5]];portConstraint=eastwest;fontColor=#000000;fontSize=14;fontStyle=0;fontFamily=Helvetica;" vertex="1" parent="9">
                    <mxGeometry y="40" width="380" height="26" as="geometry"/>
                </mxCell>
                <mxCell id="11" value="&lt;&lt;property&gt;&gt; + PlayerName: String" style="text;strokeColor=#36393d;fillColor=#ffcc99;align=left;verticalAlign=top;spacingLeft=4;spacingRight=4;overflow=hidden;rotatable=0;points=[[0,0.5],[1,0.5]];portConstraint=eastwest;fontColor=#000000;fontSize=14;fontStyle=0;fontFamily=Helvetica;" vertex="1" parent="9">
                    <mxGeometry y="66" width="380" height="26" as="geometry"/>
                </mxCell>
                <mxCell id="12" value="" style="line;strokeWidth=1;align=left;verticalAlign=middle;spacingTop=-1;spacingLeft=3;spacingRight=3;rotatable=0;labelPosition=right;points=[];portConstraint=eastwest;fillColor=#ffcc99;strokeColor=#FFF4C3;" vertex="1" parent="9">
                    <mxGeometry y="92" width="380" height="8" as="geometry"/>
                </mxCell>
                <mxCell id="13" value="&lt;&lt;event&gt;&gt; + PrintHumanOutput: EventHandler&lt;TicTacToeEventArgs&gt;" style="text;strokeColor=#36393d;fillColor=#ffcc99;align=left;verticalAlign=top;spacingLeft=4;spacingRight=4;overflow=hidden;rotatable=0;points=[[0,0.5],[1,0.5]];portConstraint=eastwest;fontColor=#000000;fontSize=14;fontStyle=0;fontFamily=Helvetica;" vertex="1" parent="9">
                    <mxGeometry y="100" width="380" height="26" as="geometry"/>
                </mxCell>
                <mxCell id="14" value="&lt;&lt;event&gt;&gt; + ClearSpecificLine: EventHandler&lt;EventArgs&gt;" style="text;strokeColor=#36393d;fillColor=#ffcc99;align=left;verticalAlign=top;spacingLeft=4;spacingRight=4;overflow=hidden;rotatable=0;points=[[0,0.5],[1,0.5]];portConstraint=eastwest;fontColor=#000000;fontSize=14;fontStyle=0;fontFamily=Helvetica;" vertex="1" parent="9">
                    <mxGeometry y="126" width="380" height="26" as="geometry"/>
                </mxCell>
                <mxCell id="15" value="+ ChooseMove(subBoard: List&lt;SubBoard&gt;): PlayerMove" style="text;strokeColor=#36393d;fillColor=#ffcc99;align=left;verticalAlign=top;spacingLeft=4;spacingRight=4;overflow=hidden;rotatable=0;points=[[0,0.5],[1,0.5]];portConstraint=eastwest;fontColor=#000000;fontSize=14;fontStyle=0;fontFamily=Helvetica;" vertex="1" parent="9">
                    <mxGeometry y="152" width="380" height="26" as="geometry"/>
                </mxCell>
                <mxCell id="16" value="" style="endArrow=open;endSize=12;dashed=1;html=1;entryX=1;entryY=0.923;entryDx=0;entryDy=0;exitX=-0.003;exitY=-0.097;exitDx=0;exitDy=0;entryPerimeter=0;exitPerimeter=0;" edge="1" parent="1" source="92" target="71">
                    <mxGeometry y="-82" width="160" relative="1" as="geometry">
                        <mxPoint x="990" y="241" as="sourcePoint"/>
                        <mxPoint x="1145" y="19.999999999999773" as="targetPoint"/>
                        <Array as="points"/>
                        <mxPoint x="20" y="2" as="offset"/>
                    </mxGeometry>
                </mxCell>
                <mxCell id="17" value="ComputerPlayer" style="swimlane;fontStyle=1;align=center;verticalAlign=middle;childLayout=stackLayout;horizontal=1;startSize=30;horizontalStack=0;resizeParent=1;resizeParentMax=0;resizeLast=0;collapsible=1;marginBottom=0;fillColor=#f9f7ed;strokeColor=#36393d;fontColor=#000000;spacing=7;" vertex="1" parent="1">
                    <mxGeometry x="-1093" y="59" width="390" height="116" as="geometry"/>
                </mxCell>
                <mxCell id="18" value="- rand: Random" style="text;strokeColor=#36393d;fillColor=#ffcc99;align=left;verticalAlign=top;spacingLeft=4;spacingRight=4;overflow=hidden;rotatable=0;points=[[0,0.5],[1,0.5]];portConstraint=eastwest;fontColor=#000000;fontSize=14;fontStyle=0;fontFamily=Helvetica;" vertex="1" parent="17">
                    <mxGeometry y="30" width="390" height="26" as="geometry"/>
                </mxCell>
                <mxCell id="19" value="" style="line;strokeWidth=1;align=left;verticalAlign=middle;spacingTop=-1;spacingLeft=3;spacingRight=3;rotatable=0;labelPosition=right;points=[];portConstraint=eastwest;fillColor=#ffcc99;strokeColor=#FFF4C3;" vertex="1" parent="17">
                    <mxGeometry y="56" width="390" height="8" as="geometry"/>
                </mxCell>
                <mxCell id="20" value="+ ComputerPlayer()" style="text;strokeColor=#36393d;fillColor=#ffcc99;align=left;verticalAlign=top;spacingLeft=4;spacingRight=4;overflow=hidden;rotatable=0;points=[[0,0.5],[1,0.5]];portConstraint=eastwest;fontColor=#000000;fontSize=14;fontStyle=0;fontFamily=Helvetica;" vertex="1" parent="17">
                    <mxGeometry y="64" width="390" height="26" as="geometry"/>
                </mxCell>
                <mxCell id="21" value="+ ChooseMove(subBoard: List&lt;SubBoard&gt;): PlayerMove" style="text;strokeColor=#36393d;fillColor=#ffcc99;align=left;verticalAlign=top;spacingLeft=4;spacingRight=4;overflow=hidden;rotatable=0;points=[[0,0.5],[1,0.5]];portConstraint=eastwest;fontColor=#000000;fontSize=14;fontStyle=0;fontFamily=Helvetica;" vertex="1" parent="17">
                    <mxGeometry y="90" width="390" height="26" as="geometry"/>
                </mxCell>
                <mxCell id="22" value="HumanPlayer" style="swimlane;fontStyle=1;align=center;verticalAlign=middle;childLayout=stackLayout;horizontal=1;startSize=26;horizontalStack=0;resizeParent=1;resizeParentMax=0;resizeLast=0;collapsible=1;marginBottom=0;fillColor=#f9f7ed;strokeColor=#36393d;fontColor=#000000;spacing=7;" vertex="1" parent="1">
                    <mxGeometry x="-1600" y="60" width="460" height="164" as="geometry"/>
                </mxCell>
                <mxCell id="23" value="- boardAndCell: Tuple&lt;int, int&gt;" style="text;strokeColor=#36393d;fillColor=#ffcc99;align=left;verticalAlign=top;spacingLeft=4;spacingRight=4;overflow=hidden;rotatable=0;points=[[0,0.5],[1,0.5]];portConstraint=eastwest;fontColor=#000000;fontSize=14;fontStyle=0;fontFamily=Helvetica;" vertex="1" parent="22">
                    <mxGeometry y="26" width="460" height="26" as="geometry"/>
                </mxCell>
                <mxCell id="24" value="" style="line;strokeWidth=1;align=left;verticalAlign=middle;spacingTop=-1;spacingLeft=3;spacingRight=3;rotatable=0;labelPosition=right;points=[];portConstraint=eastwest;fillColor=#ffcc99;strokeColor=#FFF4C3;" vertex="1" parent="22">
                    <mxGeometry y="52" width="460" height="8" as="geometry"/>
                </mxCell>
                <mxCell id="25" value="+ HumanPlayer()" style="text;strokeColor=#36393d;fillColor=#ffcc99;align=left;verticalAlign=top;spacingLeft=4;spacingRight=4;overflow=hidden;rotatable=0;points=[[0,0.5],[1,0.5]];portConstraint=eastwest;fontColor=#000000;fontSize=14;fontStyle=0;fontFamily=Helvetica;" vertex="1" parent="22">
                    <mxGeometry y="60" width="460" height="26" as="geometry"/>
                </mxCell>
                <mxCell id="26" value="+ HumanPlayer(playerMarker: PlayerMarker, playerName: string)" style="text;strokeColor=#36393d;fillColor=#ffcc99;align=left;verticalAlign=top;spacingLeft=4;spacingRight=4;overflow=hidden;rotatable=0;points=[[0,0.5],[1,0.5]];portConstraint=eastwest;fontColor=#000000;fontSize=14;fontStyle=0;fontFamily=Helvetica;" vertex="1" parent="22">
                    <mxGeometry y="86" width="460" height="26" as="geometry"/>
                </mxCell>
                <mxCell id="27" value="+ ChooseMove(subBoard: List&lt;SubBoard&gt;): PlayerMove" style="text;strokeColor=#36393d;fillColor=#ffcc99;align=left;verticalAlign=top;spacingLeft=4;spacingRight=4;overflow=hidden;rotatable=0;points=[[0,0.5],[1,0.5]];portConstraint=eastwest;fontColor=#000000;fontSize=14;fontFamily=Helvetica;" vertex="1" parent="22">
                    <mxGeometry y="112" width="460" height="26" as="geometry"/>
                </mxCell>
                <mxCell id="28" value="+ ValidFormatAndRange(subBoardAndCellIndex: string): Tuple&lt;int, int&gt;" style="text;strokeColor=#36393d;fillColor=#ffcc99;align=left;verticalAlign=top;spacingLeft=4;spacingRight=4;overflow=hidden;rotatable=0;points=[[0,0.5],[1,0.5]];portConstraint=eastwest;fontColor=#000000;fontSize=14;fontFamily=Helvetica;" vertex="1" parent="22">
                    <mxGeometry y="138" width="460" height="26" as="geometry"/>
                </mxCell>
                <mxCell id="29" value="" style="endArrow=block;endSize=16;endFill=0;html=1;fontFamily=Helvetica;fontSize=14;fontColor=#FFFFFF;entryX=0.374;entryY=1.023;entryDx=0;entryDy=0;entryPerimeter=0;" edge="1" parent="1" source="22" target="15">
                    <mxGeometry x="-0.5035" y="12" width="160" relative="1" as="geometry">
                        <mxPoint x="-1227.68" y="56.11999999999998" as="sourcePoint"/>
                        <mxPoint x="-1230.0000000000002" y="-350.99800000000016" as="targetPoint"/>
                        <mxPoint as="offset"/>
                    </mxGeometry>
                </mxCell>
                <mxCell id="30" value="&lt;&lt;abstract&gt;&gt;&#10;GameType" style="swimlane;fontStyle=1;align=center;verticalAlign=middle;childLayout=stackLayout;horizontal=1;startSize=40;horizontalStack=0;resizeParent=1;resizeParentMax=0;resizeLast=0;collapsible=1;marginBottom=0;fillColor=#f9f7ed;strokeColor=#36393d;fontColor=#000000;spacing=7;" vertex="1" parent="1">
                    <mxGeometry x="-680" y="-529" width="460" height="204" as="geometry"/>
                </mxCell>
                <mxCell id="31" value="&lt;&lt;property&gt;&gt; + CurrentPlayer: Player" style="text;strokeColor=#36393d;fillColor=#ffcc99;align=left;verticalAlign=top;spacingLeft=4;spacingRight=4;overflow=hidden;rotatable=0;points=[[0,0.5],[1,0.5]];portConstraint=eastwest;fontColor=#000000;fontSize=14;fontStyle=0;fontFamily=Helvetica;" vertex="1" parent="30">
                    <mxGeometry y="40" width="460" height="26" as="geometry"/>
                </mxCell>
                <mxCell id="32" value="&lt;&lt;property&gt;&gt; + HumanPlayer1: HumanPlayer" style="text;strokeColor=#36393d;fillColor=#ffcc99;align=left;verticalAlign=top;spacingLeft=4;spacingRight=4;overflow=hidden;rotatable=0;points=[[0,0.5],[1,0.5]];portConstraint=eastwest;fontColor=#000000;fontSize=14;fontStyle=0;fontFamily=Helvetica;" vertex="1" parent="30">
                    <mxGeometry y="66" width="460" height="26" as="geometry"/>
                </mxCell>
                <mxCell id="33" value="" style="line;strokeWidth=1;align=left;verticalAlign=middle;spacingTop=-1;spacingLeft=3;spacingRight=3;rotatable=0;labelPosition=right;points=[];portConstraint=eastwest;fillColor=#ffcc99;strokeColor=#FFF4C3;" vertex="1" parent="30">
                    <mxGeometry y="92" width="460" height="8" as="geometry"/>
                </mxCell>
                <mxCell id="34" value="+ GameType()" style="text;strokeColor=#36393d;fillColor=#ffcc99;align=left;verticalAlign=top;spacingLeft=4;spacingRight=4;overflow=hidden;rotatable=0;points=[[0,0.5],[1,0.5]];portConstraint=eastwest;fontColor=#000000;fontSize=14;fontFamily=Helvetica;" vertex="1" parent="30">
                    <mxGeometry y="100" width="460" height="26" as="geometry"/>
                </mxCell>
                <mxCell id="35" value="&lt;&lt;event&gt;&gt; + MangePlayerTurns: EventHandler&lt;TicTacToeEventArgs&gt;" style="text;strokeColor=#36393d;fillColor=#ffcc99;align=left;verticalAlign=top;spacingLeft=4;spacingRight=4;overflow=hidden;rotatable=0;points=[[0,0.5],[1,0.5]];portConstraint=eastwest;fontColor=#000000;fontSize=14;fontFamily=Helvetica;" vertex="1" parent="30">
                    <mxGeometry y="126" width="460" height="26" as="geometry"/>
                </mxCell>
                <mxCell id="36" value="+ TurnManger(numberOfTurns: int)" style="text;strokeColor=#36393d;fillColor=#ffcc99;align=left;verticalAlign=top;spacingLeft=4;spacingRight=4;overflow=hidden;rotatable=0;points=[[0,0.5],[1,0.5]];portConstraint=eastwest;fontColor=#000000;fontSize=14;fontFamily=Helvetica;" vertex="1" parent="30">
                    <mxGeometry y="152" width="460" height="26" as="geometry"/>
                </mxCell>
                <mxCell id="37" value="+ SwitchPlayer(): Player" style="text;strokeColor=#36393d;fillColor=#ffcc99;align=left;verticalAlign=top;spacingLeft=4;spacingRight=4;overflow=hidden;rotatable=0;points=[[0,0.5],[1,0.5]];portConstraint=eastwest;fontColor=#000000;fontSize=14;fontFamily=Helvetica;" vertex="1" parent="30">
                    <mxGeometry y="178" width="460" height="26" as="geometry"/>
                </mxCell>
                <mxCell id="38" value="ComputerVsHuman" style="swimlane;fontStyle=1;align=center;verticalAlign=middle;childLayout=stackLayout;horizontal=1;startSize=26;horizontalStack=0;resizeParent=1;resizeParentMax=0;resizeLast=0;collapsible=1;marginBottom=0;fillColor=#f9f7ed;strokeColor=#36393d;fontColor=#000000;spacing=7;" vertex="1" parent="1">
                    <mxGeometry x="-350" y="-110" width="460" height="112" as="geometry"/>
                </mxCell>
                <mxCell id="39" value="&lt;&lt;property&gt;&gt; + ComputerPlayer: ComputerPlayer" style="text;strokeColor=#36393d;fillColor=#ffcc99;align=left;verticalAlign=top;spacingLeft=4;spacingRight=4;overflow=hidden;rotatable=0;points=[[0,0.5],[1,0.5]];portConstraint=eastwest;fontColor=#000000;fontSize=14;fontStyle=0;fontFamily=Helvetica;" vertex="1" parent="38">
                    <mxGeometry y="26" width="460" height="26" as="geometry"/>
                </mxCell>
                <mxCell id="40" value="" style="line;strokeWidth=1;align=left;verticalAlign=middle;spacingTop=-1;spacingLeft=3;spacingRight=3;rotatable=0;labelPosition=right;points=[];portConstraint=eastwest;fillColor=#ffcc99;strokeColor=#FFF4C3;" vertex="1" parent="38">
                    <mxGeometry y="52" width="460" height="8" as="geometry"/>
                </mxCell>
                <mxCell id="41" value="+ HumanVsComputer()" style="text;strokeColor=#36393d;fillColor=#ffcc99;align=left;verticalAlign=top;spacingLeft=4;spacingRight=4;overflow=hidden;rotatable=0;points=[[0,0.5],[1,0.5]];portConstraint=eastwest;fontColor=#000000;fontSize=14;fontFamily=Helvetica;" vertex="1" parent="38">
                    <mxGeometry y="60" width="460" height="26" as="geometry"/>
                </mxCell>
                <mxCell id="42" value="- SwitchPlayer(): Player" style="text;strokeColor=#36393d;fillColor=#ffcc99;align=left;verticalAlign=top;spacingLeft=4;spacingRight=4;overflow=hidden;rotatable=0;points=[[0,0.5],[1,0.5]];portConstraint=eastwest;fontColor=#000000;fontSize=14;fontFamily=Helvetica;" vertex="1" parent="38">
                    <mxGeometry y="86" width="460" height="26" as="geometry"/>
                </mxCell>
                <mxCell id="43" value="" style="endArrow=block;endSize=16;endFill=0;html=1;fontFamily=Helvetica;fontSize=14;fontColor=#FFFFFF;" edge="1" parent="1" source="38" target="37">
                    <mxGeometry x="-0.5035" y="12" width="160" relative="1" as="geometry">
                        <mxPoint x="-160.7692307692305" y="85" as="sourcePoint"/>
                        <mxPoint x="-350" y="-325.0000000000002" as="targetPoint"/>
                        <mxPoint as="offset"/>
                    </mxGeometry>
                </mxCell>
                <mxCell id="44" value="" style="endArrow=block;endSize=16;endFill=0;html=1;fontFamily=Helvetica;fontSize=14;fontColor=#FFFFFF;exitX=0.466;exitY=0.014;exitDx=0;exitDy=0;exitPerimeter=0;" edge="1" parent="1" source="45">
                    <mxGeometry x="-0.5035" y="12" width="160" relative="1" as="geometry">
                        <mxPoint x="-430.1804225352115" y="-97" as="sourcePoint"/>
                        <mxPoint x="-490" y="-320" as="targetPoint"/>
                        <mxPoint as="offset"/>
                    </mxGeometry>
                </mxCell>
                <mxCell id="45" value="HumanVsHuman" style="swimlane;fontStyle=1;align=center;verticalAlign=middle;childLayout=stackLayout;horizontal=1;startSize=26;horizontalStack=0;resizeParent=1;resizeParentMax=0;resizeLast=0;collapsible=1;marginBottom=0;fillColor=#f9f7ed;strokeColor=#36393d;fontColor=#000000;spacing=7;" vertex="1" parent="1">
                    <mxGeometry x="-890" y="-110" width="460" height="112" as="geometry"/>
                </mxCell>
                <mxCell id="46" value="&lt;&lt;property&gt;&gt; + HumanPlayer2: HumanPlayer" style="text;strokeColor=#36393d;fillColor=#ffcc99;align=left;verticalAlign=top;spacingLeft=4;spacingRight=4;overflow=hidden;rotatable=0;points=[[0,0.5],[1,0.5]];portConstraint=eastwest;fontColor=#000000;fontSize=14;fontStyle=0;fontFamily=Helvetica;" vertex="1" parent="45">
                    <mxGeometry y="26" width="460" height="26" as="geometry"/>
                </mxCell>
                <mxCell id="47" value="" style="line;strokeWidth=1;align=left;verticalAlign=middle;spacingTop=-1;spacingLeft=3;spacingRight=3;rotatable=0;labelPosition=right;points=[];portConstraint=eastwest;fillColor=#ffcc99;strokeColor=#FFF4C3;" vertex="1" parent="45">
                    <mxGeometry y="52" width="460" height="8" as="geometry"/>
                </mxCell>
                <mxCell id="48" value="+ HumanVsHuman(player1Name: string, player2Name: string)" style="text;strokeColor=#36393d;fillColor=#ffcc99;align=left;verticalAlign=top;spacingLeft=4;spacingRight=4;overflow=hidden;rotatable=0;points=[[0,0.5],[1,0.5]];portConstraint=eastwest;fontColor=#000000;fontSize=14;fontFamily=Helvetica;" vertex="1" parent="45">
                    <mxGeometry y="60" width="460" height="26" as="geometry"/>
                </mxCell>
                <mxCell id="49" value="- SwitchPlayer(): Player" style="text;strokeColor=#36393d;fillColor=#ffcc99;align=left;verticalAlign=top;spacingLeft=4;spacingRight=4;overflow=hidden;rotatable=0;points=[[0,0.5],[1,0.5]];portConstraint=eastwest;fontColor=#000000;fontSize=14;fontFamily=Helvetica;" vertex="1" parent="45">
                    <mxGeometry y="86" width="460" height="26" as="geometry"/>
                </mxCell>
                <mxCell id="50" value="Game" style="swimlane;fontStyle=1;align=center;verticalAlign=middle;childLayout=stackLayout;horizontal=1;startSize=26;horizontalStack=0;resizeParent=1;resizeParentMax=0;resizeLast=0;collapsible=1;marginBottom=0;fillColor=#f9f7ed;strokeColor=#36393d;fontColor=#000000;spacing=7;" vertex="1" parent="1">
                    <mxGeometry x="180" y="-520" width="460" height="250" as="geometry"/>
                </mxCell>
                <mxCell id="51" value="&lt;&lt;property&gt;&gt; + SummaryBoard: SummaryBoard" style="text;strokeColor=#36393d;fillColor=#ffcc99;align=left;verticalAlign=top;spacingLeft=4;spacingRight=4;overflow=hidden;rotatable=0;points=[[0,0.5],[1,0.5]];portConstraint=eastwest;fontColor=#000000;fontSize=14;fontStyle=0;fontFamily=Helvetica;" vertex="1" parent="50">
                    <mxGeometry y="26" width="460" height="26" as="geometry"/>
                </mxCell>
                <mxCell id="52" value="&lt;&lt;property&gt;&gt; + SubBoards: List&lt;SubBoard&gt;" style="text;strokeColor=#36393d;fillColor=#ffcc99;align=left;verticalAlign=top;spacingLeft=4;spacingRight=4;overflow=hidden;rotatable=0;points=[[0,0.5],[1,0.5]];portConstraint=eastwest;fontColor=#000000;fontSize=14;fontStyle=0;fontFamily=Helvetica;" vertex="1" parent="50">
                    <mxGeometry y="52" width="460" height="26" as="geometry"/>
                </mxCell>
                <mxCell id="53" value="" style="line;strokeWidth=1;align=left;verticalAlign=middle;spacingTop=-1;spacingLeft=3;spacingRight=3;rotatable=0;labelPosition=right;points=[];portConstraint=eastwest;fillColor=#ffcc99;strokeColor=#FFF4C3;" vertex="1" parent="50">
                    <mxGeometry y="78" width="460" height="8" as="geometry"/>
                </mxCell>
                <mxCell id="54" value="" style="line;strokeWidth=1;align=left;verticalAlign=middle;spacingTop=-1;spacingLeft=3;spacingRight=3;rotatable=0;labelPosition=right;points=[];portConstraint=eastwest;fillColor=#ffcc99;strokeColor=#FFF4C3;" vertex="1" parent="50">
                    <mxGeometry y="86" width="460" height="8" as="geometry"/>
                </mxCell>
                <mxCell id="55" value="+ Game()" style="text;strokeColor=#36393d;fillColor=#ffcc99;align=left;verticalAlign=top;spacingLeft=4;spacingRight=4;overflow=hidden;rotatable=0;points=[[0,0.5],[1,0.5]];portConstraint=eastwest;fontColor=#000000;fontSize=14;fontFamily=Helvetica;" vertex="1" parent="50">
                    <mxGeometry y="94" width="460" height="26" as="geometry"/>
                </mxCell>
                <mxCell id="56" value="&lt;&lt;event&gt;&gt; + PrintBoards: EventHandler&lt;TicTacToeEventArgs&gt;" style="text;strokeColor=#36393d;fillColor=#ffcc99;align=left;verticalAlign=top;spacingLeft=4;spacingRight=4;overflow=hidden;rotatable=0;points=[[0,0.5],[1,0.5]];portConstraint=eastwest;fontColor=#000000;fontSize=14;fontFamily=Helvetica;" vertex="1" parent="50">
                    <mxGeometry y="120" width="460" height="26" as="geometry"/>
                </mxCell>
                <mxCell id="57" value="&lt;&lt;event&gt;&gt; + AskGameType: EventHandler&lt;EventArgs&gt;" style="text;strokeColor=#36393d;fillColor=#ffcc99;align=left;verticalAlign=top;spacingLeft=4;spacingRight=4;overflow=hidden;rotatable=0;points=[[0,0.5],[1,0.5]];portConstraint=eastwest;fontColor=#000000;fontSize=14;fontFamily=Helvetica;" vertex="1" parent="50">
                    <mxGeometry y="146" width="460" height="26" as="geometry"/>
                </mxCell>
                <mxCell id="58" value="&lt;&lt;event&gt;&gt; + AskPlayerNames: EventHandler&lt;TicTacToeEventArgs&gt;" style="text;strokeColor=#36393d;fillColor=#ffcc99;align=left;verticalAlign=top;spacingLeft=4;spacingRight=4;overflow=hidden;rotatable=0;points=[[0,0.5],[1,0.5]];portConstraint=eastwest;fontColor=#000000;fontSize=14;fontFamily=Helvetica;" vertex="1" parent="50">
                    <mxGeometry y="172" width="460" height="26" as="geometry"/>
                </mxCell>
                <mxCell id="59" value="+ InitGameType(): GameType" style="text;strokeColor=#36393d;fillColor=#ffcc99;align=left;verticalAlign=top;spacingLeft=4;spacingRight=4;overflow=hidden;rotatable=0;points=[[0,0.5],[1,0.5]];portConstraint=eastwest;fontColor=#000000;fontSize=14;fontFamily=Helvetica;" vertex="1" parent="50">
                    <mxGeometry y="198" width="460" height="26" as="geometry"/>
                </mxCell>
                <mxCell id="60" value="+ InitBoards(): void" style="text;strokeColor=#36393d;fillColor=#ffcc99;align=left;verticalAlign=top;spacingLeft=4;spacingRight=4;overflow=hidden;rotatable=0;points=[[0,0.5],[1,0.5]];portConstraint=eastwest;fontColor=#000000;fontSize=14;fontFamily=Helvetica;" vertex="1" parent="50">
                    <mxGeometry y="224" width="460" height="26" as="geometry"/>
                </mxCell>
                <mxCell id="61" value="&lt;&lt;abstract&gt;&gt;&#10;Board" style="swimlane;fontStyle=1;align=center;verticalAlign=middle;childLayout=stackLayout;horizontal=1;startSize=40;horizontalStack=0;resizeParent=1;resizeParentMax=0;resizeLast=0;collapsible=1;marginBottom=0;fillColor=#f9f7ed;strokeColor=#36393d;fontColor=#000000;spacing=7;" vertex="1" parent="1">
                    <mxGeometry x="190" y="-160" width="470" height="464" as="geometry"/>
                </mxCell>
                <mxCell id="62" value="&lt;&lt;property&gt;&gt; + GameBoard: PlayerMarker?[,]" style="text;strokeColor=#36393d;fillColor=#ffcc99;align=left;verticalAlign=top;spacingLeft=4;spacingRight=4;overflow=hidden;rotatable=0;points=[[0,0.5],[1,0.5]];portConstraint=eastwest;fontColor=#000000;fontSize=14;fontStyle=0;fontFamily=Helvetica;" vertex="1" parent="61">
                    <mxGeometry y="40" width="470" height="26" as="geometry"/>
                </mxCell>
                <mxCell id="63" value="&lt;&lt;property&gt;&gt; + Owner: PlayerMarker" style="text;strokeColor=#36393d;fillColor=#ffcc99;align=left;verticalAlign=top;spacingLeft=4;spacingRight=4;overflow=hidden;rotatable=0;points=[[0,0.5],[1,0.5]];portConstraint=eastwest;fontColor=#000000;fontSize=14;fontStyle=0;fontFamily=Helvetica;" vertex="1" parent="61">
                    <mxGeometry y="66" width="470" height="26" as="geometry"/>
                </mxCell>
                <mxCell id="64" value="&lt;&lt;property&gt;&gt; + BoardOriginLeft: int" style="text;strokeColor=#36393d;fillColor=#ffcc99;align=left;verticalAlign=top;spacingLeft=4;spacingRight=4;overflow=hidden;rotatable=0;points=[[0,0.5],[1,0.5]];portConstraint=eastwest;fontColor=#000000;fontSize=14;fontStyle=0;fontFamily=Helvetica;" vertex="1" parent="61">
                    <mxGeometry y="92" width="470" height="26" as="geometry"/>
                </mxCell>
                <mxCell id="65" value="&lt;&lt;property&gt;&gt; + BoardOriginTop: int" style="text;strokeColor=#36393d;fillColor=#ffcc99;align=left;verticalAlign=top;spacingLeft=4;spacingRight=4;overflow=hidden;rotatable=0;points=[[0,0.5],[1,0.5]];portConstraint=eastwest;fontColor=#000000;fontSize=14;fontStyle=0;fontFamily=Helvetica;" vertex="1" parent="61">
                    <mxGeometry y="118" width="470" height="26" as="geometry"/>
                </mxCell>
                <mxCell id="66" value="&lt;&lt;property&gt;&gt; + BoardIndex: int" style="text;strokeColor=#36393d;fillColor=#ffcc99;align=left;verticalAlign=top;spacingLeft=4;spacingRight=4;overflow=hidden;rotatable=0;points=[[0,0.5],[1,0.5]];portConstraint=eastwest;fontColor=#000000;fontSize=14;fontStyle=0;fontFamily=Helvetica;" vertex="1" parent="61">
                    <mxGeometry y="144" width="470" height="26" as="geometry"/>
                </mxCell>
                <mxCell id="67" value="" style="line;strokeWidth=1;align=left;verticalAlign=middle;spacingTop=-1;spacingLeft=3;spacingRight=3;rotatable=0;labelPosition=right;points=[];portConstraint=eastwest;fillColor=#ffcc99;strokeColor=#FFF4C3;" vertex="1" parent="61">
                    <mxGeometry y="170" width="470" height="8" as="geometry"/>
                </mxCell>
                <mxCell id="68" value="+ Board()" style="text;strokeColor=#36393d;fillColor=#ffcc99;align=left;verticalAlign=top;spacingLeft=4;spacingRight=4;overflow=hidden;rotatable=0;points=[[0,0.5],[1,0.5]];portConstraint=eastwest;fontColor=#000000;fontSize=14;fontFamily=Helvetica;" vertex="1" parent="61">
                    <mxGeometry y="178" width="470" height="26" as="geometry"/>
                </mxCell>
                <mxCell id="69" value="&lt;&lt;event&gt;&gt; + UpdateBoardPieces: EventHandler&lt;TicTacToeEventArgs&gt;" style="text;strokeColor=#36393d;fillColor=#ffcc99;align=left;verticalAlign=top;spacingLeft=4;spacingRight=4;overflow=hidden;rotatable=0;points=[[0,0.5],[1,0.5]];portConstraint=eastwest;fontColor=#000000;fontSize=14;fontStyle=0;fontFamily=Helvetica;" vertex="1" parent="61">
                    <mxGeometry y="204" width="470" height="26" as="geometry"/>
                </mxCell>
                <mxCell id="70" value="&lt;&lt;event&gt;&gt; + SubBoardHaveOwner: EventHandler&lt;TicTacToeEventArgs&gt;" style="text;strokeColor=#36393d;fillColor=#ffcc99;align=left;verticalAlign=top;spacingLeft=4;spacingRight=4;overflow=hidden;rotatable=0;points=[[0,0.5],[1,0.5]];portConstraint=eastwest;fontColor=#000000;fontSize=14;fontStyle=0;fontFamily=Helvetica;" vertex="1" parent="61">
                    <mxGeometry y="230" width="470" height="26" as="geometry"/>
                </mxCell>
                <mxCell id="71" value="+ UpdateBoard(playerMove: PlayerMove): void" style="text;strokeColor=#36393d;fillColor=#ffcc99;align=left;verticalAlign=top;spacingLeft=4;spacingRight=4;overflow=hidden;rotatable=0;points=[[0,0.5],[1,0.5]];portConstraint=eastwest;fontColor=#000000;fontSize=14;fontFamily=Helvetica;" vertex="1" parent="61">
                    <mxGeometry y="256" width="470" height="26" as="geometry"/>
                </mxCell>
                <mxCell id="72" value="+ HaveOwner(gameBoard: Board): void" style="text;strokeColor=#36393d;fillColor=#ffcc99;align=left;verticalAlign=top;spacingLeft=4;spacingRight=4;overflow=hidden;rotatable=0;points=[[0,0.5],[1,0.5]];portConstraint=eastwest;fontColor=#000000;fontSize=14;fontFamily=Helvetica;" vertex="1" parent="61">
                    <mxGeometry y="282" width="470" height="26" as="geometry"/>
                </mxCell>
                <mxCell id="73" value="+ FindOpenMoves(): List&lt;Tuple&lt;int, int&gt;&gt;" style="text;strokeColor=#36393d;fillColor=#ffcc99;align=left;verticalAlign=top;spacingLeft=4;spacingRight=4;overflow=hidden;rotatable=0;points=[[0,0.5],[1,0.5]];portConstraint=eastwest;fontColor=#000000;fontSize=14;fontStyle=0;fontFamily=Helvetica;" vertex="1" parent="61">
                    <mxGeometry y="308" width="470" height="26" as="geometry"/>
                </mxCell>
                <mxCell id="74" value="+ HorizontalWinForGame(): PlayerMarker?" style="text;strokeColor=#36393d;fillColor=#ffcc99;align=left;verticalAlign=top;spacingLeft=4;spacingRight=4;overflow=hidden;rotatable=0;points=[[0,0.5],[1,0.5]];portConstraint=eastwest;fontColor=#000000;fontSize=14;fontStyle=0;fontFamily=Helvetica;" vertex="1" parent="61">
                    <mxGeometry y="334" width="470" height="26" as="geometry"/>
                </mxCell>
                <mxCell id="75" value="+ VerticalWinForGame(): PlayerMarker?" style="text;strokeColor=#36393d;fillColor=#ffcc99;align=left;verticalAlign=top;spacingLeft=4;spacingRight=4;overflow=hidden;rotatable=0;points=[[0,0.5],[1,0.5]];portConstraint=eastwest;fontColor=#000000;fontSize=14;fontStyle=0;fontFamily=Helvetica;" vertex="1" parent="61">
                    <mxGeometry y="360" width="470" height="26" as="geometry"/>
                </mxCell>
                <mxCell id="76" value="+ DiagonalWinForGame(): PlayerMarker?" style="text;strokeColor=#36393d;fillColor=#ffcc99;align=left;verticalAlign=top;spacingLeft=4;spacingRight=4;overflow=hidden;rotatable=0;points=[[0,0.5],[1,0.5]];portConstraint=eastwest;fontColor=#000000;fontSize=14;fontStyle=0;fontFamily=Helvetica;" vertex="1" parent="61">
                    <mxGeometry y="386" width="470" height="26" as="geometry"/>
                </mxCell>
                <mxCell id="77" value="+ TieForGame(): PlayerMarker?" style="text;strokeColor=#36393d;fillColor=#ffcc99;align=left;verticalAlign=top;spacingLeft=4;spacingRight=4;overflow=hidden;rotatable=0;points=[[0,0.5],[1,0.5]];portConstraint=eastwest;fontColor=#000000;fontSize=14;fontStyle=0;fontFamily=Helvetica;" vertex="1" parent="61">
                    <mxGeometry y="412" width="470" height="26" as="geometry"/>
                </mxCell>
                <mxCell id="78" value="+ CheckIfGameOver(): PlayerMarker?" style="text;strokeColor=#36393d;fillColor=#ffcc99;align=left;verticalAlign=top;spacingLeft=4;spacingRight=4;overflow=hidden;rotatable=0;points=[[0,0.5],[1,0.5]];portConstraint=eastwest;fontColor=#000000;fontSize=14;fontStyle=0;fontFamily=Helvetica;" vertex="1" parent="61">
                    <mxGeometry y="438" width="470" height="26" as="geometry"/>
                </mxCell>
                <mxCell id="79" value="SummaryBoard" style="swimlane;fontStyle=1;align=center;verticalAlign=middle;childLayout=stackLayout;horizontal=1;startSize=26;horizontalStack=0;resizeParent=1;resizeParentMax=0;resizeLast=0;collapsible=1;marginBottom=0;fillColor=#f9f7ed;strokeColor=#36393d;fontColor=#000000;spacing=7;" vertex="1" parent="1">
                    <mxGeometry y="498" width="440" height="78" as="geometry"/>
                </mxCell>
                <mxCell id="80" value="+ SummaryBoard()" style="text;strokeColor=#36393d;fillColor=#ffcc99;align=left;verticalAlign=top;spacingLeft=4;spacingRight=4;overflow=hidden;rotatable=0;points=[[0,0.5],[1,0.5]];portConstraint=eastwest;fontColor=#000000;fontSize=14;fontStyle=0;fontFamily=Helvetica;" vertex="1" parent="79">
                    <mxGeometry y="26" width="440" height="26" as="geometry"/>
                </mxCell>
                <mxCell id="81" value="+ OnSubBoardHaveOwner(source: Object, args: TicTacToeEventArgs)" style="text;strokeColor=#36393d;fillColor=#ffcc99;align=left;verticalAlign=top;spacingLeft=4;spacingRight=4;overflow=hidden;rotatable=0;points=[[0,0.5],[1,0.5]];portConstraint=eastwest;fontColor=#000000;fontSize=14;fontStyle=0;fontFamily=Helvetica;" vertex="1" parent="79">
                    <mxGeometry y="52" width="440" height="26" as="geometry"/>
                </mxCell>
                <mxCell id="82" value="SubBoard" style="swimlane;fontStyle=1;align=center;verticalAlign=middle;childLayout=stackLayout;horizontal=1;startSize=26;horizontalStack=0;resizeParent=1;resizeParentMax=0;resizeLast=0;collapsible=1;marginBottom=0;fillColor=#f9f7ed;strokeColor=#36393d;fontColor=#000000;spacing=7;" vertex="1" parent="1">
                    <mxGeometry x="490" y="498" width="470" height="52" as="geometry"/>
                </mxCell>
                <mxCell id="83" value="+ SubBoard(subBoardIndex: int, boardOriginLeft: int, boardOriginTop: int" style="text;strokeColor=#36393d;fillColor=#ffcc99;align=left;verticalAlign=top;spacingLeft=4;spacingRight=4;overflow=hidden;rotatable=0;points=[[0,0.5],[1,0.5]];portConstraint=eastwest;fontColor=#000000;fontSize=14;fontStyle=0;fontFamily=Helvetica;" vertex="1" parent="82">
                    <mxGeometry y="26" width="470" height="26" as="geometry"/>
                </mxCell>
                <mxCell id="84" value="PlayerMove" style="swimlane;fontStyle=1;align=center;verticalAlign=middle;childLayout=stackLayout;horizontal=1;startSize=26;horizontalStack=0;resizeParent=1;resizeParentMax=0;resizeLast=0;collapsible=1;marginBottom=0;fillColor=#f9f7ed;strokeColor=#36393d;fontColor=#000000;spacing=7;" vertex="1" parent="1">
                    <mxGeometry x="890" y="-130" width="440" height="164" as="geometry"/>
                </mxCell>
                <mxCell id="85" value="&lt;&lt;property&gt;&gt; + Board: Board" style="text;strokeColor=#36393d;fillColor=#ffcc99;align=left;verticalAlign=top;spacingLeft=4;spacingRight=4;overflow=hidden;rotatable=0;points=[[0,0.5],[1,0.5]];portConstraint=eastwest;fontColor=#000000;fontSize=14;fontStyle=0;fontFamily=Helvetica;" vertex="1" parent="84">
                    <mxGeometry y="26" width="440" height="26" as="geometry"/>
                </mxCell>
                <mxCell id="86" value="&lt;&lt;property&gt;&gt; + Row: int" style="text;strokeColor=#36393d;fillColor=#ffcc99;align=left;verticalAlign=top;spacingLeft=4;spacingRight=4;overflow=hidden;rotatable=0;points=[[0,0.5],[1,0.5]];portConstraint=eastwest;fontColor=#000000;fontSize=14;fontFamily=Helvetica;" vertex="1" parent="84">
                    <mxGeometry y="52" width="440" height="26" as="geometry"/>
                </mxCell>
                <mxCell id="87" value="&lt;&lt;property&gt;&gt; + Column: int" style="text;strokeColor=#36393d;fillColor=#ffcc99;align=left;verticalAlign=top;spacingLeft=4;spacingRight=4;overflow=hidden;rotatable=0;points=[[0,0.5],[1,0.5]];portConstraint=eastwest;fontColor=#000000;fontSize=14;fontFamily=Helvetica;" vertex="1" parent="84">
                    <mxGeometry y="78" width="440" height="26" as="geometry"/>
                </mxCell>
                <mxCell id="88" value="&lt;&lt;property&gt;&gt; + Piece: PlayerMarker" style="text;strokeColor=#36393d;fillColor=#ffcc99;align=left;verticalAlign=top;spacingLeft=4;spacingRight=4;overflow=hidden;rotatable=0;points=[[0,0.5],[1,0.5]];portConstraint=eastwest;fontColor=#000000;fontSize=14;fontFamily=Helvetica;" vertex="1" parent="84">
                    <mxGeometry y="104" width="440" height="26" as="geometry"/>
                </mxCell>
                <mxCell id="89" value="" style="line;strokeWidth=1;align=left;verticalAlign=middle;spacingTop=-1;spacingLeft=3;spacingRight=3;rotatable=0;labelPosition=right;points=[];portConstraint=eastwest;fillColor=#ffcc99;strokeColor=#FFF4C3;" vertex="1" parent="84">
                    <mxGeometry y="130" width="440" height="8" as="geometry"/>
                </mxCell>
                <mxCell id="90" value="+ PlayerMove(board: Board, row: int, column: int, piece: PlayerMaker" style="text;strokeColor=#36393d;fillColor=#ffcc99;align=left;verticalAlign=top;spacingLeft=4;spacingRight=4;overflow=hidden;rotatable=0;points=[[0,0.5],[1,0.5]];portConstraint=eastwest;fontColor=#000000;fontSize=14;fontFamily=Helvetica;" vertex="1" parent="84">
                    <mxGeometry y="138" width="440" height="26" as="geometry"/>
                </mxCell>
                <mxCell id="91" value="BoardView" style="swimlane;fontStyle=1;align=center;verticalAlign=middle;childLayout=stackLayout;horizontal=1;startSize=38;horizontalStack=0;resizeParent=1;resizeParentMax=0;resizeLast=0;collapsible=1;marginBottom=0;fillColor=#f9f7ed;strokeColor=#36393d;fontColor=#000000;spacing=7;" vertex="1" parent="1">
                    <mxGeometry x="880" y="85" width="590" height="168" as="geometry"/>
                </mxCell>
                <mxCell id="92" value="&lt;&lt;event&gt;&gt; + SetColorBoard: EventHandler&lt;EventArgs&gt;" style="text;strokeColor=#36393d;fillColor=#ffcc99;align=left;verticalAlign=top;spacingLeft=4;spacingRight=4;overflow=hidden;rotatable=0;points=[[0,0.5],[1,0.5]];portConstraint=eastwest;fontColor=#000000;fontSize=14;fontFamily=Helvetica;" vertex="1" parent="91">
                    <mxGeometry y="38" width="590" height="26" as="geometry"/>
                </mxCell>
                <mxCell id="93" value="- PrintBoardView(gameBoard: Board): void" style="text;strokeColor=#36393d;fillColor=#ffcc99;align=left;verticalAlign=top;spacingLeft=4;spacingRight=4;overflow=hidden;rotatable=0;points=[[0,0.5],[1,0.5]];portConstraint=eastwest;fontColor=#000000;fontSize=14;fontFamily=Helvetica;" vertex="1" parent="91">
                    <mxGeometry y="64" width="590" height="26" as="geometry"/>
                </mxCell>
                <mxCell id="94" value="- PrintPieces(gameBoard: PlayerMarker?[,], boardOriginLeft: int, boardOriginTop: int): void" style="text;strokeColor=#36393d;fillColor=#ffcc99;align=left;verticalAlign=top;spacingLeft=4;spacingRight=4;overflow=hidden;rotatable=0;points=[[0,0.5],[1,0.5]];portConstraint=eastwest;fontColor=#000000;fontSize=14;fontFamily=Helvetica;" vertex="1" parent="91">
                    <mxGeometry y="90" width="590" height="26" as="geometry"/>
                </mxCell>
                <mxCell id="95" value="+ OnBoardUpdated(source: object, args: TicTacToeEventArgs): void" style="text;strokeColor=#36393d;fillColor=#ffcc99;align=left;verticalAlign=top;spacingLeft=4;spacingRight=4;overflow=hidden;rotatable=0;points=[[0,0.5],[1,0.5]];portConstraint=eastwest;fontColor=#000000;fontSize=14;fontFamily=Helvetica;" vertex="1" parent="91">
                    <mxGeometry y="116" width="590" height="26" as="geometry"/>
                </mxCell>
                <mxCell id="96" value="+ OnBoardsInitialized(source: object, args: TicTacToeEventArgs): void" style="text;strokeColor=#36393d;fillColor=#ffcc99;align=left;verticalAlign=top;spacingLeft=4;spacingRight=4;overflow=hidden;rotatable=0;points=[[0,0.5],[1,0.5]];portConstraint=eastwest;fontColor=#000000;fontSize=14;fontFamily=Helvetica;" vertex="1" parent="91">
                    <mxGeometry y="142" width="590" height="26" as="geometry"/>
                </mxCell>
                <mxCell id="97" value="GameView" style="swimlane;fontStyle=1;align=center;verticalAlign=middle;childLayout=stackLayout;horizontal=1;startSize=26;horizontalStack=0;resizeParent=1;resizeParentMax=0;resizeLast=0;collapsible=1;marginBottom=0;fillColor=#f9f7ed;strokeColor=#36393d;fontColor=#000000;spacing=7;" vertex="1" parent="1">
                    <mxGeometry x="860" y="-635" width="500" height="416" as="geometry"/>
                </mxCell>
                <mxCell id="98" value="+ OnPlayerPlayed(source: object, args: TicTacToeEventArgs): void" style="text;strokeColor=#36393d;fillColor=#ffcc99;align=left;verticalAlign=top;spacingLeft=4;spacingRight=4;overflow=hidden;rotatable=0;points=[[0,0.5],[1,0.5]];portConstraint=eastwest;fontColor=#000000;fontSize=14;fontFamily=Helvetica;" vertex="1" parent="97">
                    <mxGeometry y="26" width="500" height="26" as="geometry"/>
                </mxCell>
                <mxCell id="99" value="+ OnHumanPlaying(source: object, args: TicTacToeEventArgs): void" style="text;strokeColor=#36393d;fillColor=#ffcc99;align=left;verticalAlign=top;spacingLeft=4;spacingRight=4;overflow=hidden;rotatable=0;points=[[0,0.5],[1,0.5]];portConstraint=eastwest;fontColor=#000000;fontSize=14;fontFamily=Helvetica;" vertex="1" parent="97">
                    <mxGeometry y="52" width="500" height="26" as="geometry"/>
                </mxCell>
                <mxCell id="100" value="+ OnLocationEntered( (source: object, args: EventArgs): void" style="text;strokeColor=#36393d;fillColor=#ffcc99;align=left;verticalAlign=top;spacingLeft=4;spacingRight=4;overflow=hidden;rotatable=0;points=[[0,0.5],[1,0.5]];portConstraint=eastwest;fontColor=#000000;fontSize=14;fontFamily=Helvetica;" vertex="1" parent="97">
                    <mxGeometry y="78" width="500" height="26" as="geometry"/>
                </mxCell>
                <mxCell id="101" value="+ OnSelectingGameType( (source: object, args: EventArgs): void" style="text;strokeColor=#36393d;fillColor=#ffcc99;align=left;verticalAlign=top;spacingLeft=4;spacingRight=4;overflow=hidden;rotatable=0;points=[[0,0.5],[1,0.5]];portConstraint=eastwest;fontColor=#000000;fontSize=14;fontFamily=Helvetica;" vertex="1" parent="97">
                    <mxGeometry y="104" width="500" height="26" as="geometry"/>
                </mxCell>
                <mxCell id="102" value="+ OnHumanVsHumanTypeSelected( (source: object, args: EventArgs): void" style="text;strokeColor=#36393d;fillColor=#ffcc99;align=left;verticalAlign=top;spacingLeft=4;spacingRight=4;overflow=hidden;rotatable=0;points=[[0,0.5],[1,0.5]];portConstraint=eastwest;fontColor=#000000;fontSize=14;fontFamily=Helvetica;" vertex="1" parent="97">
                    <mxGeometry y="130" width="500" height="26" as="geometry"/>
                </mxCell>
                <mxCell id="103" value="+ OnPrintBoardView( (source: object, args: EventArgs): void" style="text;strokeColor=#36393d;fillColor=#ffcc99;align=left;verticalAlign=top;spacingLeft=4;spacingRight=4;overflow=hidden;rotatable=0;points=[[0,0.5],[1,0.5]];portConstraint=eastwest;fontColor=#000000;fontSize=14;fontFamily=Helvetica;" vertex="1" parent="97">
                    <mxGeometry y="156" width="500" height="26" as="geometry"/>
                </mxCell>
                <mxCell id="104" value="+ PrintResult(playerMarker: PlayerMarker?): bool" style="text;strokeColor=#36393d;fillColor=#ffcc99;align=left;verticalAlign=top;spacingLeft=4;spacingRight=4;overflow=hidden;rotatable=0;points=[[0,0.5],[1,0.5]];portConstraint=eastwest;fontColor=#000000;fontSize=14;fontFamily=Helvetica;" vertex="1" parent="97">
                    <mxGeometry y="182" width="500" height="26" as="geometry"/>
                </mxCell>
                <mxCell id="105" value="- PrintXWon(): void" style="text;strokeColor=#36393d;fillColor=#ffcc99;align=left;verticalAlign=top;spacingLeft=4;spacingRight=4;overflow=hidden;rotatable=0;points=[[0,0.5],[1,0.5]];portConstraint=eastwest;fontColor=#000000;fontSize=14;fontFamily=Helvetica;" vertex="1" parent="97">
                    <mxGeometry y="208" width="500" height="26" as="geometry"/>
                </mxCell>
                <mxCell id="106" value="- PrintOWon(): void" style="text;strokeColor=#36393d;fillColor=#ffcc99;align=left;verticalAlign=top;spacingLeft=4;spacingRight=4;overflow=hidden;rotatable=0;points=[[0,0.5],[1,0.5]];portConstraint=eastwest;fontColor=#000000;fontSize=14;fontFamily=Helvetica;" vertex="1" parent="97">
                    <mxGeometry y="234" width="500" height="26" as="geometry"/>
                </mxCell>
                <mxCell id="107" value="- PrintTie(): void" style="text;strokeColor=#36393d;fillColor=#ffcc99;align=left;verticalAlign=top;spacingLeft=4;spacingRight=4;overflow=hidden;rotatable=0;points=[[0,0.5],[1,0.5]];portConstraint=eastwest;fontColor=#000000;fontSize=14;fontFamily=Helvetica;" vertex="1" parent="97">
                    <mxGeometry y="260" width="500" height="26" as="geometry"/>
                </mxCell>
                <mxCell id="108" value="+ PrintHomePage(): void" style="text;strokeColor=#36393d;fillColor=#ffcc99;align=left;verticalAlign=top;spacingLeft=4;spacingRight=4;overflow=hidden;rotatable=0;points=[[0,0.5],[1,0.5]];portConstraint=eastwest;fontColor=#000000;fontSize=14;fontFamily=Helvetica;" vertex="1" parent="97">
                    <mxGeometry y="286" width="500" height="26" as="geometry"/>
                </mxCell>
                <mxCell id="109" value="- ResetGame(): bool" style="text;strokeColor=#36393d;fillColor=#ffcc99;align=left;verticalAlign=top;spacingLeft=4;spacingRight=4;overflow=hidden;rotatable=0;points=[[0,0.5],[1,0.5]];portConstraint=eastwest;fontColor=#000000;fontSize=14;fontFamily=Helvetica;" vertex="1" parent="97">
                    <mxGeometry y="312" width="500" height="26" as="geometry"/>
                </mxCell>
                <mxCell id="110" value="- SetBaseColor(): void" style="text;strokeColor=#36393d;fillColor=#ffcc99;align=left;verticalAlign=top;spacingLeft=4;spacingRight=4;overflow=hidden;rotatable=0;points=[[0,0.5],[1,0.5]];portConstraint=eastwest;fontColor=#000000;fontSize=14;fontFamily=Helvetica;" vertex="1" parent="97">
                    <mxGeometry y="338" width="500" height="26" as="geometry"/>
                </mxCell>
                <mxCell id="111" value="- SetBaseTextPosition(): void" style="text;strokeColor=#36393d;fillColor=#ffcc99;align=left;verticalAlign=top;spacingLeft=4;spacingRight=4;overflow=hidden;rotatable=0;points=[[0,0.5],[1,0.5]];portConstraint=eastwest;fontColor=#000000;fontSize=14;fontFamily=Helvetica;" vertex="1" parent="97">
                    <mxGeometry y="364" width="500" height="26" as="geometry"/>
                </mxCell>
                <mxCell id="112" value="- ClearCurrentConsoleLine(originLeft: int, originTop: int): void" style="text;strokeColor=#36393d;fillColor=#ffcc99;align=left;verticalAlign=top;spacingLeft=4;spacingRight=4;overflow=hidden;rotatable=0;points=[[0,0.5],[1,0.5]];portConstraint=eastwest;fontColor=#000000;fontSize=14;fontFamily=Helvetica;" vertex="1" parent="97">
                    <mxGeometry y="390" width="500" height="26" as="geometry"/>
                </mxCell>
                <mxCell id="113" value="&lt;&lt;EventArgs&gt;&gt;&#10;TicTacToeEventArgs" style="swimlane;fontStyle=1;align=center;verticalAlign=middle;childLayout=stackLayout;horizontal=1;startSize=40;horizontalStack=0;resizeParent=1;resizeParentMax=0;resizeLast=0;collapsible=1;marginBottom=0;fillColor=#f9f7ed;strokeColor=#36393d;fontColor=#000000;spacing=7;" vertex="1" parent="1">
                    <mxGeometry x="-340" y="96" width="380" height="274" as="geometry"/>
                </mxCell>
                <mxCell id="114" value="+ GameBoard: PlayerMarker?[,]" style="text;strokeColor=#36393d;fillColor=#ffcc99;align=left;verticalAlign=top;spacingLeft=4;spacingRight=4;overflow=hidden;rotatable=0;points=[[0,0.5],[1,0.5]];portConstraint=eastwest;fontColor=#000000;fontSize=14;fontStyle=0;fontFamily=Helvetica;" vertex="1" parent="113">
                    <mxGeometry y="40" width="380" height="26" as="geometry"/>
                </mxCell>
                <mxCell id="115" value="+ PlayerMove: PlayerMove&#10;" style="text;strokeColor=#36393d;fillColor=#ffcc99;align=left;verticalAlign=top;spacingLeft=4;spacingRight=4;overflow=hidden;rotatable=0;points=[[0,0.5],[1,0.5]];portConstraint=eastwest;fontColor=#000000;fontSize=14;fontStyle=0;fontFamily=Helvetica;" vertex="1" parent="113">
                    <mxGeometry y="66" width="380" height="26" as="geometry"/>
                </mxCell>
                <mxCell id="116" value="+ BoardOriginLeft: int " style="text;strokeColor=#36393d;fillColor=#ffcc99;align=left;verticalAlign=top;spacingLeft=4;spacingRight=4;overflow=hidden;rotatable=0;points=[[0,0.5],[1,0.5]];portConstraint=eastwest;fontColor=#000000;fontSize=14;fontStyle=0;fontFamily=Helvetica;" vertex="1" parent="113">
                    <mxGeometry y="92" width="380" height="26" as="geometry"/>
                </mxCell>
                <mxCell id="117" value="+ BoardOriginTop: int&#10;" style="text;strokeColor=#36393d;fillColor=#ffcc99;align=left;verticalAlign=top;spacingLeft=4;spacingRight=4;overflow=hidden;rotatable=0;points=[[0,0.5],[1,0.5]];portConstraint=eastwest;fontColor=#000000;fontSize=14;fontStyle=0;fontFamily=Helvetica;" vertex="1" parent="113">
                    <mxGeometry y="118" width="380" height="26" as="geometry"/>
                </mxCell>
                <mxCell id="118" value="+ Owner: PlayerMarker?&#10;" style="text;strokeColor=#36393d;fillColor=#ffcc99;align=left;verticalAlign=top;spacingLeft=4;spacingRight=4;overflow=hidden;rotatable=0;points=[[0,0.5],[1,0.5]];portConstraint=eastwest;fontColor=#000000;fontSize=14;fontStyle=0;fontFamily=Helvetica;" vertex="1" parent="113">
                    <mxGeometry y="144" width="380" height="26" as="geometry"/>
                </mxCell>
                <mxCell id="119" value="+ Player: Player" style="text;strokeColor=#36393d;fillColor=#ffcc99;align=left;verticalAlign=top;spacingLeft=4;spacingRight=4;overflow=hidden;rotatable=0;points=[[0,0.5],[1,0.5]];portConstraint=eastwest;fontColor=#000000;fontSize=14;fontStyle=0;fontFamily=Helvetica;" vertex="1" parent="113">
                    <mxGeometry y="170" width="380" height="26" as="geometry"/>
                </mxCell>
                <mxCell id="120" value="+ SubBoards: List&lt;SubBoard&gt;" style="text;strokeColor=#36393d;fillColor=#ffcc99;align=left;verticalAlign=top;spacingLeft=4;spacingRight=4;overflow=hidden;rotatable=0;points=[[0,0.5],[1,0.5]];portConstraint=eastwest;fontColor=#000000;fontSize=14;fontStyle=0;fontFamily=Helvetica;" vertex="1" parent="113">
                    <mxGeometry y="196" width="380" height="26" as="geometry"/>
                </mxCell>
                <mxCell id="121" value="+ SummaryBoard: SummaryBoard" style="text;strokeColor=#36393d;fillColor=#ffcc99;align=left;verticalAlign=top;spacingLeft=4;spacingRight=4;overflow=hidden;rotatable=0;points=[[0,0.5],[1,0.5]];portConstraint=eastwest;fontColor=#000000;fontSize=14;fontStyle=0;fontFamily=Helvetica;" vertex="1" parent="113">
                    <mxGeometry y="222" width="380" height="26" as="geometry"/>
                </mxCell>
                <mxCell id="122" value="+NumberOfTimes: int" style="text;strokeColor=#36393d;fillColor=#ffcc99;align=left;verticalAlign=top;spacingLeft=4;spacingRight=4;overflow=hidden;rotatable=0;points=[[0,0.5],[1,0.5]];portConstraint=eastwest;fontColor=#000000;fontSize=14;fontStyle=0;fontFamily=Helvetica;" vertex="1" parent="113">
                    <mxGeometry y="248" width="380" height="26" as="geometry"/>
                </mxCell>
                <mxCell id="123" value="" style="endArrow=open;endSize=12;dashed=1;html=1;entryX=0.466;entryY=0.006;entryDx=0;entryDy=0;entryPerimeter=0;" edge="1" parent="1" source="125" target="50">
                    <mxGeometry y="-82" width="160" relative="1" as="geometry">
                        <mxPoint x="392.3000000000002" y="-616.6640000000002" as="sourcePoint"/>
                        <mxPoint x="300" y="-531" as="targetPoint"/>
                        <Array as="points"/>
                        <mxPoint x="20" y="2" as="offset"/>
                    </mxGeometry>
                </mxCell>
                <mxCell id="124" value="Program" style="swimlane;fontStyle=1;align=center;verticalAlign=middle;childLayout=stackLayout;horizontal=1;startSize=26;horizontalStack=0;resizeParent=1;resizeParentMax=0;resizeLast=0;collapsible=1;marginBottom=0;fillColor=#f9f7ed;strokeColor=#36393d;fontColor=#000000;spacing=7;" vertex="1" parent="1">
                    <mxGeometry x="211" y="-680" width="370" height="52" as="geometry"/>
                </mxCell>
                <mxCell id="125" value="+ main(args: String[]): void" style="text;strokeColor=#36393d;fillColor=#ffcc99;align=left;verticalAlign=top;spacingLeft=4;spacingRight=4;overflow=hidden;rotatable=0;points=[[0,0.5],[1,0.5]];portConstraint=eastwest;fontColor=#000000;fontSize=14;fontStyle=0;fontFamily=Helvetica;" vertex="1" parent="124">
                    <mxGeometry y="26" width="370" height="26" as="geometry"/>
                </mxCell>
                <mxCell id="126" value="&lt;&lt;enumeration&gt;&gt;&#10;PlayerMarker" style="swimlane;fontStyle=1;align=center;verticalAlign=middle;childLayout=stackLayout;horizontal=1;startSize=40;horizontalStack=0;resizeParent=1;resizeParentMax=0;resizeLast=0;collapsible=1;marginBottom=0;fillColor=#f9f7ed;strokeColor=#36393d;fontColor=#000000;spacing=7;" vertex="1" parent="1">
                    <mxGeometry x="-620" y="253" width="230" height="118" as="geometry"/>
                </mxCell>
                <mxCell id="127" value="X" style="text;strokeColor=#36393d;fillColor=#ffcc99;align=left;verticalAlign=top;spacingLeft=4;spacingRight=4;overflow=hidden;rotatable=0;points=[[0,0.5],[1,0.5]];portConstraint=eastwest;fontColor=#000000;fontSize=14;fontStyle=0;fontFamily=Helvetica;" vertex="1" parent="126">
                    <mxGeometry y="40" width="230" height="26" as="geometry"/>
                </mxCell>
                <mxCell id="128" value="O" style="text;strokeColor=#36393d;fillColor=#ffcc99;align=left;verticalAlign=top;spacingLeft=4;spacingRight=4;overflow=hidden;rotatable=0;points=[[0,0.5],[1,0.5]];portConstraint=eastwest;fontColor=#000000;fontSize=14;fontStyle=0;fontFamily=Helvetica;" vertex="1" parent="126">
                    <mxGeometry y="66" width="230" height="26" as="geometry"/>
                </mxCell>
                <mxCell id="129" value="Tie" style="text;strokeColor=#36393d;fillColor=#ffcc99;align=left;verticalAlign=top;spacingLeft=4;spacingRight=4;overflow=hidden;rotatable=0;points=[[0,0.5],[1,0.5]];portConstraint=eastwest;fontColor=#000000;fontSize=14;fontStyle=0;fontFamily=Helvetica;" vertex="1" parent="126">
                    <mxGeometry y="92" width="230" height="26" as="geometry"/>
                </mxCell>
            </root>
        </mxGraphModel>
    </diagram>
</mxfile>